<svg id="Layer_1" data-name="Layer 1" xmlns="http://www.w3.org/2000/svg" xmlns:xlink="http://www.w3.org/1999/xlink" viewBox="0 0 499.97 335.6"><defs><style>.cls-1{fill:url(#linear-gradient);}.cls-2{fill:url(#linear-gradient-2);}</style><linearGradient id="linear-gradient" x1="318.81" y1="523.92" x2="318.81" y2="233.43" gradientUnits="userSpaceOnUse"><stop offset="0" stop-color="#09acee"/><stop offset="0.63" stop-color="#08aaec"/><stop offset="0.89" stop-color="#04a4e5"/><stop offset="1" stop-color="#019fdf"/></linearGradient><linearGradient id="linear-gradient-2" x1="485.85" y1="569.03" x2="485.85" y2="281.15" xlink:href="#linear-gradient"/></defs><path class="cls-1" d="M271.3,523.92a120.79,120.79,0,1,1,99.09-189.78A187.31,187.31,0,0,1,462,235.21a17.43,17.43,0,1,1,15.33,31.3,152,152,0,0,0-85.25,136.63A120.92,120.92,0,0,1,271.3,523.92Zm0-206.72a85.94,85.94,0,1,0,85.93,85.94A86,86,0,0,0,271.3,317.2Z" transform="translate(-150.51 -233.43)"/><path class="cls-2" d="M338.67,569a17.43,17.43,0,0,1-8.44-32.69,152.21,152.21,0,0,0,78.68-133.2c0-67.27,54.19-122,120.79-122A120.79,120.79,0,1,1,444.39,488a119.65,119.65,0,0,1-13.74-16.13,187.12,187.12,0,0,1-83.58,94.94A17.26,17.26,0,0,1,338.67,569Zm105.1-165.89a83.59,83.59,0,0,0,25.07,60.06A86.11,86.11,0,1,0,529.7,316,84.67,84.67,0,0,0,469,341.67,87.2,87.2,0,0,0,443.77,403.14Z" transform="translate(-150.51 -233.43)"/></svg>